<svg xmlns="http://www.w3.org/2000/svg" version="1.1" xmlns:xlink="http://www.w3.org/1999/xlink" xmlns:svgjs="http://svgjs.dev/svgjs" width="2000" height="346" viewBox="0 0 2000 346"><g transform="matrix(1,0,0,1,-2.6507324071748144,-2.2524600000000135)"><svg viewBox="0 0 346 60" data-background-color="#000000" preserveAspectRatio="xMidYMid meet" height="346" width="2000" xmlns="http://www.w3.org/2000/svg" xmlns:xlink="http://www.w3.org/1999/xlink"><g id="tight-bounds" transform="matrix(1,0,0,1,0.45857670644124937,0.3906000000000063)"><svg viewBox="0 0 345.0828465871175 59.218799999999995" height="59.218799999999995" width="345.0828465871175"><g><svg viewBox="0 0 345.0828465871175 59.218799999999995" height="59.218799999999995" width="345.0828465871175"><g><svg viewBox="0 0 345.0828465871175 59.218799999999995" height="59.218799999999995" width="345.0828465871175"><g><svg viewBox="0 0 345.0828465871175 59.218799999999995" height="59.218799999999995" width="345.0828465871175"><g id="textblocktransform"><svg viewBox="0 0 345.0828465871175 59.218799999999995" height="59.218799999999995" width="345.0828465871175" id="textblock"><g><svg viewBox="0 0 345.0828465871175 59.218799999999995" height="59.218799999999995" width="345.0828465871175"><g><svg><g></g><g></g></svg></g><g><svg><g><svg></svg></g><g></g></svg></g><g id="text-0"><svg viewBox="0 0 345.0828465871175 59.218799999999995" height="59.218799999999995" width="345.0828465871175"><g transform="matrix(1,0,0,1,0,11.309399999999997)"><svg width="105.75000000000001" viewBox="1.4 -36 105.74 36.6" height="36.6" data-palette-color="#ffffff"><path d="M17.65 0L11.7 0 11.7-30.15 1.4-30.15 1.4-35 27.95-35 27.95-30.15 17.65-30.15 17.65 0ZM36.95 0.6L36.95 0.6Q33.85 0.6 31.8-0.45 29.75-1.5 28.75-3.25 27.75-5 27.75-7.05L27.75-7.05Q27.75-9.45 28.97-11.2 30.2-12.95 32.6-13.93 35-14.9 38.5-14.9L38.5-14.9 44.85-14.9Q44.85-16.9 44.3-18.23 43.75-19.55 42.6-20.2 41.45-20.85 39.65-20.85L39.65-20.85Q37.6-20.85 36.15-19.93 34.7-19 34.35-17.1L34.35-17.1 28.45-17.1Q28.75-19.8 30.25-21.73 31.75-23.65 34.22-24.73 36.7-25.8 39.65-25.8L39.65-25.8Q43.2-25.8 45.7-24.58 48.2-23.35 49.52-21.08 50.85-18.8 50.85-15.6L50.85-15.6 50.85 0 45.75 0 45.15-4.05 45.15-4.05Q44.65-3.05 43.87-2.2 43.1-1.35 42.1-0.73 41.1-0.1 39.82 0.25 38.55 0.6 36.95 0.6ZM38.3-4.15L38.3-4.15Q39.75-4.15 40.87-4.67 42-5.2 42.82-6.18 43.65-7.15 44.1-8.35 44.55-9.55 44.7-10.9L44.7-10.9 44.7-11 39.15-11Q37.4-11 36.25-10.55 35.1-10.1 34.6-9.33 34.1-8.55 34.1-7.5L34.1-7.5Q34.1-6.45 34.6-5.7 35.1-4.95 36.05-4.55 37-4.15 38.3-4.15ZM67.3 0.6L67.3 0.6Q63.95 0.6 61.47-0.48 59-1.55 57.57-3.48 56.15-5.4 55.9-7.9L55.9-7.9 61.9-7.9Q62.15-6.85 62.8-5.98 63.45-5.1 64.57-4.6 65.7-4.1 67.25-4.1L67.25-4.1Q68.75-4.1 69.7-4.53 70.65-4.95 71.1-5.65 71.55-6.35 71.55-7.15L71.55-7.15Q71.55-8.35 70.9-9 70.25-9.65 69.02-10.03 67.8-10.4 66.1-10.75L66.1-10.75Q64.3-11.1 62.62-11.63 60.95-12.15 59.62-12.95 58.3-13.75 57.52-15 56.75-16.25 56.75-18.05L56.75-18.05Q56.75-20.25 57.92-22 59.1-23.75 61.32-24.78 63.55-25.8 66.65-25.8L66.65-25.8Q71.05-25.8 73.67-23.78 76.3-21.75 76.75-18.1L76.75-18.1 71.05-18.1Q70.8-19.5 69.65-20.28 68.5-21.05 66.6-21.05L66.6-21.05Q64.65-21.05 63.62-20.33 62.6-19.6 62.6-18.4L62.6-18.4Q62.6-17.6 63.22-17 63.85-16.4 65.05-15.98 66.25-15.55 68-15.15L68-15.15Q70.8-14.6 72.95-13.85 75.1-13.1 76.35-11.65 77.6-10.2 77.6-7.55L77.6-7.55Q77.65-5.15 76.37-3.3 75.1-1.45 72.8-0.43 70.5 0.6 67.3 0.6ZM107.14 0L99.64 0 88.49-13.8 98.49-25.2 105.64-25.2 93.19-11.35 93.19-16 107.14 0ZM89.39 0L83.39 0 83.39-36 89.39-36 89.39 0Z" opacity="1" transform="matrix(1,0,0,1,0,0)" fill="#ffffff" class="undefined-tk-0"></path></svg></g><g><svg xmlns="http://www.w3.org/2000/svg" xmlns:xlink="http://www.w3.org/1999/xlink" version="1.1" x="119.73120000000002" y="0" viewBox="18.531 18.531 62.93975 62.937999999999995" enable-background="new 0 0 100 100" xml:space="preserve" height="59.218799999999995" width="59.22044658711748" class="icon-dxe-0" data-fill-palette-color="accent" id="dxe-0"><path d="M67.414 32.587A1.5 1.5 0 0 0 65.293 32.587L59.619 38.261A1.5 1.5 0 1 0 61.741 40.382L67.415 34.708A1.5 1.5 0 0 0 67.414 32.587M66.008 45.143C66.392 45.143 66.776 44.997 67.069 44.704L72.24 39.533C75.485 36.289 75.484 31.009 72.239 27.763S63.714 24.517 60.469 27.763L55.298 32.934A1.5 1.5 0 1 0 57.419 35.055L62.59 29.884A5.33 5.33 0 0 1 70.117 29.884 5.33 5.33 0 0 1 70.118 37.411L64.947 42.582A1.5 1.5 0 0 0 66.008 45.143M77.048 22.953C71.152 17.057 61.556 17.057 55.659 22.953L50.345 28.267A1.5 1.5 0 1 0 52.466 30.388L57.78 25.074C62.507 20.347 70.2 20.347 74.926 25.074 79.654 29.802 79.654 37.493 74.926 42.22L69.612 47.534A1.5 1.5 0 1 0 71.734 49.655L77.048 44.341C82.945 38.445 82.945 28.85 77.048 22.953M34.201 46.53A1.5 1.5 0 1 0 32.08 48.651L51.349 67.92C51.642 68.213 52.026 68.359 52.41 68.359S53.178 68.213 53.471 67.92A1.5 1.5 0 0 0 53.471 65.799zM39.019 41.713A1.5 1.5 0 1 0 36.898 43.834L56.166 63.103C56.459 63.396 56.843 63.542 57.227 63.542S57.995 63.396 58.288 63.103A1.5 1.5 0 0 0 58.288 60.982zM43.835 36.896A1.5 1.5 0 1 0 41.714 39.017L60.983 58.286C61.276 58.579 61.66 58.725 62.044 58.725S62.812 58.579 63.105 58.286A1.5 1.5 0 0 0 63.105 56.165zM32.586 67.412C32.879 67.705 33.263 67.851 33.647 67.851S34.415 67.705 34.708 67.412L40.382 61.738A1.5 1.5 0 1 0 38.261 59.617L32.587 65.291A1.5 1.5 0 0 0 32.586 67.412M32.932 55.296L27.761 60.467C24.516 63.712 24.516 68.992 27.761 72.238A8.3 8.3 0 0 0 33.646 74.672 8.3 8.3 0 0 0 39.532 72.237L44.703 67.066A1.5 1.5 0 1 0 42.582 64.945L37.411 70.116A5.33 5.33 0 0 1 29.883 70.117 5.33 5.33 0 0 1 29.883 62.589L35.054 57.418A1.5 1.5 0 0 0 32.932 55.296M47.534 69.609L42.22 74.924C37.493 79.651 29.8 79.651 25.074 74.924S20.347 62.505 25.074 57.778L30.389 52.464A1.5 1.5 0 1 0 28.268 50.343L22.953 55.657C17.057 61.554 17.057 71.149 22.953 77.046 25.901 79.994 29.774 81.469 33.647 81.469S41.393 79.994 44.341 77.046L49.655 71.731A1.5 1.5 0 1 0 47.534 69.609M69.333 58.475C69.707 56.303 70.172 53.6 67.921 51.348L48.651 32.079A1.5 1.5 0 1 0 46.53 34.2L65.8 53.469C66.899 54.569 66.744 55.83 66.377 57.967 66.003 60.139 65.538 62.842 67.789 65.094 68.082 65.387 68.466 65.533 68.85 65.533S69.618 65.387 69.911 65.094A1.5 1.5 0 0 0 69.911 62.973C68.812 61.873 68.966 60.611 69.333 58.475" fill="#a3e635" data-fill-palette-color="accent"></path></svg></g><g transform="matrix(1,0,0,1,192.9328465871175,11.309399999999997)"><svg width="152.15" viewBox="1.4 -36 152.14 36.6" height="36.6" data-palette-color="#ffffff"><path d="M17.65 0L11.7 0 11.7-30.15 1.4-30.15 1.4-35 27.95-35 27.95-30.15 17.65-30.15 17.65 0ZM40 0.6L40 0.6Q36.25 0.6 33.4-1.03 30.55-2.65 28.95-5.6 27.35-8.55 27.35-12.4L27.35-12.4Q27.35-16.4 28.92-19.4 30.5-22.4 33.37-24.1 36.25-25.8 40.05-25.8L40.05-25.8Q43.75-25.8 46.5-24.15 49.25-22.5 50.75-19.73 52.25-16.95 52.25-13.5L52.25-13.5Q52.25-13 52.25-12.4 52.25-11.8 52.15-11.15L52.15-11.15 31.65-11.15 31.65-15 46.2-15Q46.1-17.75 44.35-19.33 42.6-20.9 40-20.9L40-20.9Q38.15-20.9 36.6-20.05 35.05-19.2 34.15-17.53 33.25-15.85 33.25-13.3L33.25-13.3 33.25-11.85Q33.25-9.5 34.12-7.8 35-6.1 36.52-5.23 38.05-4.35 39.95-4.35L39.95-4.35Q42.05-4.35 43.42-5.25 44.8-6.15 45.45-7.65L45.45-7.65 51.55-7.65Q50.85-5.3 49.25-3.43 47.65-1.55 45.3-0.48 42.95 0.6 40 0.6ZM72.55 0L68.25 0Q65.7 0 63.82-0.8 61.95-1.6 60.9-3.45 59.85-5.3 59.85-8.45L59.85-8.45 59.85-20.15 55.55-20.15 55.55-25.2 59.85-25.2 60.55-31.85 65.85-31.85 65.85-25.2 72.7-25.2 72.7-20.15 65.85-20.15 65.85-8.45Q65.85-6.55 66.67-5.83 67.5-5.1 69.45-5.1L69.45-5.1 72.55-5.1 72.55 0ZM84.34 0L78.34 0 78.34-36 84.34-36 84.34-21.3 84.34-21.3Q85.59-23.35 87.74-24.58 89.89-25.8 92.59-25.8L92.59-25.8Q95.69-25.8 97.84-24.53 99.99-23.25 101.12-20.78 102.24-18.3 102.24-14.6L102.24-14.6 102.24 0 96.29 0 96.29-14.05Q96.29-17.3 94.92-19 93.54-20.7 90.74-20.7L90.74-20.7Q88.94-20.7 87.49-19.83 86.04-18.95 85.19-17.32 84.34-15.7 84.34-13.35L84.34-13.35 84.34 0ZM120.39 0.6L120.39 0.6Q116.64 0.6 113.79-1.03 110.94-2.65 109.34-5.6 107.74-8.55 107.74-12.4L107.74-12.4Q107.74-16.4 109.32-19.4 110.89-22.4 113.77-24.1 116.64-25.8 120.44-25.8L120.44-25.8Q124.14-25.8 126.89-24.15 129.64-22.5 131.14-19.73 132.64-16.95 132.64-13.5L132.64-13.5Q132.64-13 132.64-12.4 132.64-11.8 132.54-11.15L132.54-11.15 112.04-11.15 112.04-15 126.59-15Q126.49-17.75 124.74-19.33 122.99-20.9 120.39-20.9L120.39-20.9Q118.54-20.9 116.99-20.05 115.44-19.2 114.54-17.53 113.64-15.85 113.64-13.3L113.64-13.3 113.64-11.85Q113.64-9.5 114.52-7.8 115.39-6.1 116.92-5.23 118.44-4.35 120.34-4.35L120.34-4.35Q122.44-4.35 123.82-5.25 125.19-6.15 125.84-7.65L125.84-7.65 131.94-7.65Q131.24-5.3 129.64-3.43 128.04-1.55 125.69-0.48 123.34 0.6 120.39 0.6ZM144.19 0L138.19 0 138.19-25.2 143.54-25.2 144.09-20.5 144.09-20.5Q144.99-22.15 146.34-23.33 147.69-24.5 149.51-25.15 151.34-25.8 153.54-25.8L153.54-25.8 153.54-19.45 151.44-19.45Q149.94-19.45 148.59-19.07 147.24-18.7 146.26-17.88 145.29-17.05 144.74-15.63 144.19-14.2 144.19-12.05L144.19-12.05 144.19 0Z" opacity="1" transform="matrix(1,0,0,1,0,0)" fill="#ffffff" class="undefined-tk-1"></path></svg></g></svg></g></svg></g></svg></g></svg></g></svg></g></svg></g><defs></defs></svg><rect width="345.0828465871175" height="59.218799999999995" fill="none" stroke="none" visibility="hidden"></rect></g></svg></g></svg>